<svg xmlns="http://www.w3.org/2000/svg" xmlns:xlink="http://www.w3.org/1999/xlink" viewBox="0 0 160.34 162.38"><defs><linearGradient id="Безымянный_градиент_165" x1="32.67" x2="119.19" y1="80.67" y2="80.67" gradientUnits="userSpaceOnUse"><stop offset="0" stop-color="#005378"/><stop offset=".69" stop-color="#1093d5"/><stop offset=".99" stop-color="#5eb5ea"/></linearGradient><linearGradient id="Безымянный_градиент_163" x1="50.9" x2="117.57" y1="93.83" y2="93.83" gradientUnits="userSpaceOnUse"><stop offset="0" stop-color="#a7d5f4"/><stop offset=".23" stop-color="#acd7f4"/><stop offset=".51" stop-color="#bcdcf5"/><stop offset=".82" stop-color="#d5e5f5"/><stop offset="1" stop-color="#e7ebf6"/></linearGradient><linearGradient xlink:href="#Безымянный_градиент_165" id="Безымянный_градиент_86" x1="82.02" x2="96.37" y1="109.93" y2="109.93"/><linearGradient id="Безымянный_градиент_102" x1="66.05" x2="82.41" y1="111.21" y2="111.21" gradientUnits="userSpaceOnUse"><stop offset=".39" stop-color="#005378"/><stop offset=".99" stop-color="#0c73a5"/></linearGradient><linearGradient id="Безымянный_градиент_118" x1="99.65" x2="99.53" y1="60.64" y2="54.08" gradientUnits="userSpaceOnUse"><stop offset="0" stop-color="#005378"/><stop offset=".4" stop-color="#1093d5"/><stop offset=".49" stop-color="#1e9bda"/><stop offset=".66" stop-color="#44afe7"/><stop offset=".77" stop-color="#5ebdf0"/><stop offset="1" stop-color="#d9edfb"/></linearGradient><linearGradient xlink:href="#Безымянный_градиент_118" id="Безымянный_градиент_118-2" x1="86" x2="84.6" y1="51.88" y2="54.04"/><linearGradient id="Безымянный_градиент_123" x1="91.57" x2="90.16" y1="50.88" y2="53.04" gradientTransform="matrix(.95 .97 -.81 .79 51.75 -77.99)" gradientUnits="userSpaceOnUse"><stop offset="0" stop-color="#005378"/><stop offset=".29" stop-color="#1093d5"/><stop offset=".34" stop-color="#1e9bda"/><stop offset=".44" stop-color="#44afe7"/><stop offset=".5" stop-color="#5ebdf0"/><stop offset="1" stop-color="#d9edfb"/></linearGradient><linearGradient xlink:href="#Безымянный_градиент_123" id="Безымянный_градиент_123-2" x1="94.84" x2="93.43" y1="41.31" y2="43.47" gradientTransform="matrix(-1.06 .85 .71 .88 174.89 -66.26)"/><linearGradient xlink:href="#Безымянный_градиент_123" id="Безымянный_градиент_123-3" x1="91.15" x2="89.75" y1="41.66" y2="43.82" gradientTransform="matrix(-1.17 -.12 -.09 .89 223.94 26.53)"/><linearGradient xlink:href="#Безымянный_градиент_123" id="Безымянный_градиент_123-4" x1="97.38" x2="95.98" y1="41.71" y2="43.87" gradientTransform="matrix(-.32 .63 .56 .29 109.58 -23.28)"/><linearGradient xlink:href="#Безымянный_градиент_123" id="Безымянный_градиент_123-5" x1="101.22" x2="99.82" y1="41.21" y2="43.37" gradientTransform="matrix(-.69 -.12 -.11 .62 173.55 36.49)"/><linearGradient id="Безымянный_градиент_195" x1="92.22" x2="92.69" y1="71.73" y2="74.04" gradientTransform="rotate(-5.37 89.756 72.915)" gradientUnits="userSpaceOnUse"><stop offset="0" stop-color="#fff" stop-opacity=".9"/><stop offset=".06" stop-color="#fff" stop-opacity=".76"/><stop offset=".14" stop-color="#fff" stop-opacity=".59"/><stop offset=".23" stop-color="#fff" stop-opacity=".45"/><stop offset=".32" stop-color="#fff" stop-opacity=".34"/><stop offset=".4" stop-color="#fff" stop-opacity=".26"/><stop offset=".49" stop-color="#fff" stop-opacity=".22"/><stop offset=".57" stop-color="#fff" stop-opacity=".2"/></linearGradient><linearGradient xlink:href="#Безымянный_градиент_195" id="Безымянный_градиент_195-2" x1="75.99" x2="76.46" y1="37.18" y2="39.49" gradientTransform="matrix(1.49 .19 .25 -1.56 -50.09 140.83)"/><style>.cls-3{fill:#3b72a7;fill-rule:evenodd}.cls-16{opacity:.68}.cls-17{fill:#85c9ee}.cls-20{fill:#0d0d0d}.cls-25{fill:none;stroke-miterlimit:10;stroke-width:.5px;stroke:#0e0e0e}</style></defs><g id="Слой_2" data-name="Слой 2"><g id="кит"><ellipse cx="80.17" cy="81.19" rx="80.17" ry="81.19" style="fill:#3b72a7"/><circle cx="82.51" cy="79.83" r="77.11" style="fill:#fff"/><path d="M85.88 15.12a66.56 66.56 0 1 1-70 63 66.57 66.57 0 0 1 70-63m-.15 2.82A63.74 63.74 0 1 0 146 85a63.76 63.76 0 0 0-60.27-67.06" class="cls-3"/><path d="M38.41 49.44c-.3-.73-.54-1.3-.73-1.71a10 10 0 0 0-.68-1.29 6.2 6.2 0 0 0-.94-1.18 2.47 2.47 0 0 1-.85-1.59 2.24 2.24 0 0 1 .8-1.73 2.6 2.6 0 0 1 2-.81 12 12 0 0 1 2.71.37c.34.08 1.7.49 4.05 1.25s3.9 1.25 4.64 1.52a1.7 1.7 0 0 0 .83.14 2.3 2.3 0 0 0 .63-.23 1.3 1.3 0 0 1 .5-.19c.12 0 .27.07.45.25a.94.94 0 0 1 .24 1 3.8 3.8 0 0 1-.69 1.26c-.33.41-.72.85-1.18 1.32-.81.82-1.42 1.43-1.85 1.81a3.6 3.6 0 0 1-1.2.75.91.91 0 0 1-1-.21.68.68 0 0 1-.23-.43 1.2 1.2 0 0 1 .13-.51 3 3 0 0 0 .16-.46.38.38 0 0 0-.14-.33.79.79 0 0 0-.65-.27 2.16 2.16 0 0 0-.87.53c-.36.32-.94.88-1.72 1.67a3.4 3.4 0 0 0-.75 1c-.09.25 0 .53.34.83a.37.37 0 0 0 .34.13 1.7 1.7 0 0 0 .47-.2 1.4 1.4 0 0 1 .52-.17.62.62 0 0 1 .46.22c.58.55.19 1.51-1.15 2.89a9.8 9.8 0 0 1-1.5 1.32 1.63 1.63 0 0 1-.89.34.9.9 0 0 1-.58-.27c-.2-.19-.28-.35-.25-.5a4.5 4.5 0 0 1 .24-.73 1.8 1.8 0 0 0 .17-.86 13 13 0 0 0-.72-2.26l-1.08-2.73Zm3.89-2c.36-.37.48-.61.36-.73a5.4 5.4 0 0 0-1.66-.53 7 7 0 0 0-.87-.2.61.61 0 0 0-.54.15.49.49 0 0 0-.08.46 2.6 2.6 0 0 0 .2.58l.27.55.18.38a5 5 0 0 0 .22.45 1.4 1.4 0 0 0 .19.3.21.21 0 0 0 .28 0 1.8 1.8 0 0 0 .41-.35l1-1.05Zm17.45-8.79 1.92.87.87.38a.9.9 0 0 0 .46.1 2.5 2.5 0 0 0 .55-.2l3-1.45c1.06-.51 1.43-1.09 1.11-1.73a1 1 0 0 0-.57-.58 4.2 4.2 0 0 0-.94-.11 3 3 0 0 1-.88-.12l-5.75-2.39c-.41-.18-.71-.33-.89-.43a1 1 0 0 1-.42-.46 1.3 1.3 0 0 1 0-.91 8 8 0 0 1 .39-1.14c.17-.38.31-.71.42-1s.36-.48.86-.74a4.8 4.8 0 0 0 1-.7q.285-.3 0-.93c-.38-.76-1.41-.74-3.09.07l-.37.18a10.6 10.6 0 0 0-2.17 1.32 1.09 1.09 0 0 0-.42 1.42 1.15 1.15 0 0 0 .38.39 1.3 1.3 0 0 1 .37.4 2.1 2.1 0 0 1 0 .92 9 9 0 0 1-.34 1.41c-.15.44-.29.7-.44.77s-.46-.08-.7-.57a3.1 3.1 0 0 1-.42-1.28 2.7 2.7 0 0 1 .2-.82 1 1 0 0 0 0-.79 1.06 1.06 0 0 0-1.31-.53 8 8 0 0 0-2 .69 8.5 8.5 0 0 0-2.83 1.83 1.17 1.17 0 0 0-.26 1.22.9.9 0 0 0 .35.43 2 2 0 0 0 .52.12 1.6 1.6 0 0 1 .64.18 2 2 0 0 1 .61.62 14 14 0 0 1 .88 1.42c.28.51.6 1.15 1 1.9a24 24 0 0 1 1.34 3.17 1.9 1.9 0 0 1 .13.84 1.6 1.6 0 0 1-.19.61 2 2 0 0 0-.21.48.74.74 0 0 0 .11.48 1 1 0 0 0 1 .5 8.3 8.3 0 0 0 2.66-.95 14.7 14.7 0 0 0 2.15-1.21 2.37 2.37 0 0 0 .85-.88.77.77 0 0 0 0-.68.92.92 0 0 0-.38-.42 3 3 0 0 0-.62-.21 3.5 3.5 0 0 1-.62-.2.84.84 0 0 1-.36-.4l-.18-.37c-.32-.63-.3-1 .05-1.21s1.09.14 2.55.78Zm22.63-6.3a1.7 1.7 0 0 0 .21.69 1.16 1.16 0 0 0 .55.38 2.3 2.3 0 0 1 .56.26.65.65 0 0 1 .22.45 1.19 1.19 0 0 1-.55 1.1 7.5 7.5 0 0 1-3.12.86q-3.36.46-3.54-.84a.93.93 0 0 1 .33-.88 2.2 2.2 0 0 0 .58-.77 3.7 3.7 0 0 0 0-1.71c0-.21-.06-.47-.09-.79s-.06-.51-.07-.6q-.09-.62-.39-.57a.9.9 0 0 0-.29.1 5 5 0 0 0-1 .92 12.4 12.4 0 0 0-1.19 1.52 2.06 2.06 0 0 0-.47 1.08 1.6 1.6 0 0 0 .2.69 1 1 0 0 0 .36.31 1 1 0 0 1 .34.25 1.1 1.1 0 0 1 .19.54c.13.95-.93 1.58-3.19 1.9a10.8 10.8 0 0 1-2.47.06c-.81-.07-1.25-.39-1.33-1a.9.9 0 0 1 .51-.89 2.3 2.3 0 0 0 .45-.36 1 1 0 0 0 .18-.52 6 6 0 0 0 0-1.2c0-.53-.13-1.31-.28-2.34-.19-1.35-.34-2.33-.45-3a10 10 0 0 0-.28-1.32 1 1 0 0 0-.26-.46 3.2 3.2 0 0 0-.53-.22 3.4 3.4 0 0 1-.53-.25.5.5 0 0 1-.21-.37c-.1-.64.32-1.14 1.25-1.5a12.8 12.8 0 0 1 2.86-.74 9 9 0 0 1 2.12 0c.68.07 1.06.36 1.13.86a.92.92 0 0 1-.09.64 2.6 2.6 0 0 1-.53.54 2 2 0 0 0-.36.33.84.84 0 0 0-.1.44 6 6 0 0 0 .09.95q.06.45.12 1c0 .38.07.61.08.7a.85.85 0 0 0 .17.47c.07.08.22.1.44.07a2.7 2.7 0 0 0 .87-.74c.38-.43.76-.9 1.12-1.4a7.6 7.6 0 0 0 .66-1 1 1 0 0 0 .1-.54.8.8 0 0 0-.2-.42 1.3 1.3 0 0 0-.39-.3 2 2 0 0 1-.39-.28.8.8 0 0 1-.18-.47 1.4 1.4 0 0 1 .08-.75 1.7 1.7 0 0 1 .87-.63 9 9 0 0 1 2.25-.53c2.34-.32 3.57 0 3.7.87A1 1 0 0 1 82 24a1.36 1.36 0 0 0-.46.4 1.74 1.74 0 0 0-.1.83 21 21 0 0 0 .22 2.13l.72 5Zm9-1.32a4.4 4.4 0 0 0-.17-.66.44.44 0 0 0-.31-.31c-.3-.06-.58.5-.86 1.68-.05.22-.11.48-.17.8s-.09.5-.11.55a1.9 1.9 0 0 0-.05 1.13 2.1 2.1 0 0 0 .51.56.65.65 0 0 1 .28.69c-.18.74-1.19.9-3.06.48-1.61-.37-2.33-.9-2.17-1.59 0-.24.13-.38.25-.44a1.5 1.5 0 0 1 .5-.12 1.1 1.1 0 0 0 .56-.21A1.35 1.35 0 0 0 87 33c.34-1 .64-1.93.91-2.82s.55-1.95.84-3.2a5.7 5.7 0 0 0 .25-2.26 1.15 1.15 0 0 0-.39-.48 4.4 4.4 0 0 1-.5-.55.7.7 0 0 1-.09-.57c.11-.49.52-.76 1.21-.82a10.3 10.3 0 0 1 3.7.61 2 2 0 0 1 .65.38 1.1 1.1 0 0 1 .26.37c0 .11.13.4.27.85.08.24.23.83.43 1.76a23 23 0 0 0 .6 2.24c.19.57.4.91.64 1s.43-.08.72-.36a15 15 0 0 0 1.17-1.37c.49-.62.81-1 1-1.2l.83-.93a2.9 2.9 0 0 1 .8-.65 2.1 2.1 0 0 1 .94-.18 7.3 7.3 0 0 1 1.5.22c1.84.42 2.66 1 2.47 1.87a.76.76 0 0 1-.23.44 5 5 0 0 1-.6.37 1.55 1.55 0 0 0-.59.51 10 10 0 0 0-.57 1.57c-.26.83-.45 1.49-.56 2 0-.08-.24 1.31-.77 4.17a1.47 1.47 0 0 0 0 .76 2 2 0 0 0 .37.57 3 3 0 0 1 .34.43.54.54 0 0 1 0 .44c-.12.5-.53.75-1.24.75a11.5 11.5 0 0 1-2.51-.33 12 12 0 0 1-2.39-.77c-.61-.29-.87-.67-.76-1.14a.7.7 0 0 1 .2-.35 1.8 1.8 0 0 1 .45-.28l.44-.24a.8.8 0 0 0 .23-.28 7 7 0 0 0 .31-.85 13 13 0 0 0 .37-1.29c.22-.93.2-1.43 0-1.49a.81.81 0 0 0-.65.28 5.7 5.7 0 0 0-.78.87l-.85 1.1-.72 1a12 12 0 0 1-1 1.24c-.27.28-.5.39-.69.35a.73.73 0 0 1-.3-.22 3 3 0 0 1-.27-.74c-.11-.39-.26-1-.44-2l-.53-2.71Zm22.13 2.6a.85.85 0 0 1 .64-.5 2.7 2.7 0 0 1 1.31.49 2.85 2.85 0 0 1 1.16 1 10 10 0 0 1 .53 1.46 2 2 0 0 0 .76 1.23 1 1 0 0 0 .93.07 1.5 1.5 0 0 0 .75-.66 4 4 0 0 0 .47-1.25 3.3 3.3 0 0 0 0-1.25 1 1 0 0 0-.41-.74c-.13-.07-.81-.43-2.06-1.06s-1.92-1-2-1.06A7 7 0 0 1 115 31l-.49-.31c-.41-.23-1-.57-1.64-1s-1.26-.79-1.73-1.06a1.75 1.75 0 0 0-1-.25 1 1 0 0 0-.77.49.82.82 0 0 0 .07.91 2.3 2.3 0 0 1 .38.92 2.8 2.8 0 0 1-.55 1.5l-2.92 4.8a4 4 0 0 1-1 1.24 1.54 1.54 0 0 1-.88.31h-.75a.64.64 0 0 0-.54.34.86.86 0 0 0 0 .85 1.5 1.5 0 0 0 .64.68c.39.23 1 .55 1.78 1l1.77 1c.35.2.85.5 1.52.92l1.6 1a5.7 5.7 0 0 0 2.87.89 3.53 3.53 0 0 0 2.12-.64 5.2 5.2 0 0 0 1.43-1.59 3.55 3.55 0 0 0 .47-1.43 4.1 4.1 0 0 0-.11-1.45 3.8 3.8 0 0 0-.52-1.2 7.06 7.06 0 0 0-2.41-2c-.63-.35-1.13-.62-1.52-.79-.22-.13-.32-.28-.29-.44a3 3 0 0 1 .37-.82l.65-1.1Zm-3.2 5.46L111 38a.65.65 0 0 1 .48-.32 1.06 1.06 0 0 1 .72.17 1.63 1.63 0 0 1 .91 1.3 2.78 2.78 0 0 1-.42 1.67 2 2 0 0 1-1.16.91 1.8 1.8 0 0 1-1.48-.16.72.72 0 0 1-.38-1.08 8.6 8.6 0 0 1 .69-1.4ZM120.79 43a6.86 6.86 0 0 1 5.27-1.77 7.4 7.4 0 0 1 2.73.81 8.2 8.2 0 0 1 2.38 1.84 7.2 7.2 0 0 1 1.71 3 7 7 0 0 1 .18 3 8 8 0 0 1-.89 2.58 6.6 6.6 0 0 1-1.41 1.82 6.5 6.5 0 0 1-2.53 1.42 6.8 6.8 0 0 1-2.81.22 7.9 7.9 0 0 1-2.74-.88 8.7 8.7 0 0 1-2.32-1.81 7.6 7.6 0 0 1-1.53-2.46 7 7 0 0 1-.46-2.74 6.6 6.6 0 0 1 .66-2.67 7.25 7.25 0 0 1 1.76-2.3Zm7.6 2.15a1.38 1.38 0 0 0-1.29-.46 2.6 2.6 0 0 0-1.38.64 8.5 8.5 0 0 0-1.14 1.33 13 13 0 0 0-1.16 1.9 6.3 6.3 0 0 0-.61 1.94 1.71 1.71 0 0 0 .39 1.5 1.45 1.45 0 0 0 1.31.53 2.5 2.5 0 0 0 1.39-.66 11.3 11.3 0 0 0 1.66-2 8.5 8.5 0 0 0 1.2-2.61 2.11 2.11 0 0 0-.37-2.1ZM61.7 137c-.5-1.49-.88-2.29-1.13-2.38s-.68.11-1 .77l-.15.38a.85.85 0 0 0 0 .54 3 3 0 0 0 .26.58 2.7 2.7 0 0 1 .26.6.88.88 0 0 1 0 .55.82.82 0 0 1-.5.48 2.56 2.56 0 0 1-1.23 0 15.4 15.4 0 0 1-2.36-.75 8.4 8.4 0 0 1-2.5-1.31 1 1 0 0 1-.31-1.07.74.74 0 0 1 .3-.4 1.6 1.6 0 0 1 .49-.17 1.7 1.7 0 0 0 .59-.27 2.3 2.3 0 0 0 .54-.66 23 23 0 0 0 1.46-3.12c.32-.78.57-1.44.77-2a15 15 0 0 0 .47-1.6 2 2 0 0 0 0-.86 1.7 1.7 0 0 0-.29-.59 1.7 1.7 0 0 1-.27-.46 1 1 0 0 1 .09-.54c.14-.35.5-.56 1.09-.63a8.4 8.4 0 0 1 3.27.83 8.4 8.4 0 0 1 1.86 1 1 1 0 0 1 .41 1.33 1 1 0 0 1-.59.53 2.7 2.7 0 0 0-.74.41 3 3 0 0 0-.68 1.17c-.2.5-.19.8 0 .89a1.34 1.34 0 0 0 .88-.2 7.5 7.5 0 0 0 1.27-.7 1.9 1.9 0 0 0 .7-.61 1.1 1.1 0 0 0 0-.54 1.1 1.1 0 0 1 0-.53 1.12 1.12 0 0 1 1.35-.66 11 11 0 0 1 2.45.69l.38.15c1.74.69 2.45 1.42 2.13 2.21-.17.44-.4.65-.68.64a4.2 4.2 0 0 1-1.21-.28 1.74 1.74 0 0 0-1.14-.12l-1 .35a7 7 0 0 0-1.12.48 1.33 1.33 0 0 0-.67.63 1 1 0 0 0-.06.61c.05.2.14.52.28.94l2.08 5.81a2.7 2.7 0 0 0 .51.72 4.2 4.2 0 0 1 .55.76 1 1 0 0 1-.06.81c-.26.66-.94.78-2 .35l-3.11-1.22a2 2 0 0 1-.53-.27.9.9 0 0 1-.25-.35c-.07-.16-.17-.46-.31-.89l-.64-2Zm27.47 2.83a2 2 0 0 0 .13.71 1.14 1.14 0 0 0 .51.44 3 3 0 0 1 .53.33.68.68 0 0 1 .16.47 1.21 1.21 0 0 1-.68 1 7.5 7.5 0 0 1-3.2.5c-2.25.05-3.39-.36-3.41-1.24a.93.93 0 0 1 .43-.84 2.5 2.5 0 0 0 .67-.7 3.8 3.8 0 0 0 .2-1.7v-1.39c0-.42-.12-.62-.32-.62a1 1 0 0 0-.3.07 4.7 4.7 0 0 0-1.12.8 15 15 0 0 0-1.36 1.34 2.16 2.16 0 0 0-.59 1 1.8 1.8 0 0 0 .12.71.87.87 0 0 0 .32.34.82.82 0 0 1 .43.85c0 1-1.1 1.47-3.38 1.52a11 11 0 0 1-2.47-.22c-.79-.17-1.19-.53-1.2-1.1a.91.91 0 0 1 .61-.83 2.4 2.4 0 0 0 .49-.3 1 1 0 0 0 .24-.5 5.7 5.7 0 0 0 .13-1.18v-2.36c0-1.36-.07-2.36-.1-3a10 10 0 0 0-.13-1.34 1 1 0 0 0-.2-.49 4 4 0 0 0-.5-.29 2.3 2.3 0 0 1-.5-.3.5.5 0 0 1-.17-.4c0-.64.46-1.09 1.42-1.34a13 13 0 0 1 2.92-.41 9.2 9.2 0 0 1 2.11.21c.68.15 1 .48 1 1a.9.9 0 0 1-.16.61 2.5 2.5 0 0 1-.6.49 1.6 1.6 0 0 0-.39.28.8.8 0 0 0-.15.42 6.3 6.3 0 0 0 0 1v1.71a1 1 0 0 0 .11.49.54.54 0 0 0 .44.11 2.6 2.6 0 0 0 .94-.63 15 15 0 0 0 1.28-1.26 7 7 0 0 0 .78-.93 1.1 1.1 0 0 0 .16-.52.8.8 0 0 0-.15-.45 1.3 1.3 0 0 0-.35-.34 1.5 1.5 0 0 1-.36-.32.83.83 0 0 1-.13-.48 1.45 1.45 0 0 1 .18-.74 1.62 1.62 0 0 1 .93-.53 9.6 9.6 0 0 1 2.3-.27c2.36-.05 3.55.38 3.57 1.3a1 1 0 0 1-.58.92 1.4 1.4 0 0 0-.51.35 1.66 1.66 0 0 0-.19.81v2.14l.12 5Zm12.11-14.12a7.7 7.7 0 0 0 1.38-.67 3 3 0 0 1 .7-.42 1.64 1.64 0 0 1 1.08.1 4.2 4.2 0 0 1 1.4.87 4.1 4.1 0 0 1 1 1.53 1.66 1.66 0 0 1 .07 1.23 1.37 1.37 0 0 1-.89.81 1.34 1.34 0 0 1-1 .05 3.3 3.3 0 0 1-1-.58 10 10 0 0 0-.8-.59.61.61 0 0 0-.59 0c-.42.16-.49.61-.19 1.36l2.2 5.55c.24.61.47 1 .68 1a4 4 0 0 0 1 .16 1 1 0 0 1 .91.55 1.2 1.2 0 0 1-.37 1.25 8.1 8.1 0 0 1-2.87 1.56c-2.9 1.12-4.54 1.23-4.89.32-.11-.27-.12-.47 0-.58a5 5 0 0 1 .57-.56 1.23 1.23 0 0 0 .47-.7 6.4 6.4 0 0 0-.49-2l-1.43-4.06-.18-.43a2.9 2.9 0 0 0-.63-1.14.51.51 0 0 0-.5-.09.59.59 0 0 0-.37.37c-.06.18-.16.51-.28 1a4.5 4.5 0 0 1-.46 1.18 1.44 1.44 0 0 1-.76.63 1.1 1.1 0 0 1-1-.08 1.55 1.55 0 0 1-.67-.78 4.1 4.1 0 0 1-.25-1.73 4.7 4.7 0 0 1 .37-1.76 1.65 1.65 0 0 1 .83-1s.28-.06.74-.13a11 11 0 0 0 1.62-.48Z" class="cls-3"/><path d="M100.72 94.49S94.24 98 91.2 98.73s-12.63 1.84-15.15 1.27-10.18-4.86-10.18-4.86l-5.41-7.27-5.86-7.05-3.12-3.08-1.66 2.2-5.6 2.17a21.3 21.3 0 0 1-6.31-.82c-2.89-.93-5-1.66-5.24-2.63s2.93-1.17 2.93-1.17a8.9 8.9 0 0 0 3.77-1.38 24 24 0 0 0 2.54-2.32c.73-.74 1.91-.6 1.3-1.6s-2.48-1.49-1.66-1.93.73-1.54 1.68-1.62 2-1.59 2-2.07.76-1.34.14-2.47-1.19-2.83-.92-2.94a20.5 20.5 0 0 1 3.32 1.4l2.1 1.71 1.61 1.78 1.88 2 1 1.75.05.85.2.77.54 1.1 4.68 3.2 11.08 3.68 5.08-.26 5-2 4.73-4.24 6.77-3.83L98.62 68c.67-1.39 11.8 2.6 12.72 5 .7 1.84 3.22 3.14 4.11 4.87a7.2 7.2 0 0 1 .87 3.08h1.77a3 3 0 0 1 .85 3.42c-.9 1.91-5.28 7.19-5.28 7.19l-8.12 2.87Z" style="fill-rule:evenodd;fill:url(#Безымянный_градиент_165)"/><path d="m84 100.36-11-1.13-5.89-3.36-5.37-6.47-4.65-5.94-3.45-3.78-1.51-1.4H50.9s3.24 9.13 3.86 10.5 4.44 8.28 4.44 8.28l5.8 6.78 5.59 3.72 7.13 1.82h4.69s14.54-.13 16.44-.94 10.71-5.87 10.71-5.87l6.28-5 1.63-3.33s.86-1.86-2.48.71-5.43 2.62-5.43 2.62l-6.4-1.37s-2.9-2.51-3.31-1.91c-.7 1-7.61 5-8.79 4.24-1.36-.89-7.06 1.83-7.06 1.83" style="fill-rule:evenodd;fill:url(#Безымянный_градиент_163)"/><path d="M82.84 121.37a10.6 10.6 0 0 0 4.66-1.14 63 63 0 0 0 5.33-3.94s3.27-4.56 3.47-5.64a30 30 0 0 0-.13-5 30 30 0 0 0-1.41-3.81L92.2 99.2l-2.6-.71-4.91 2.18-2.69 4.5 1 4.76.86 2-1 5-.86 3.25s-.11 1.06.84 1.19" style="fill-rule:evenodd;fill:url(#Безымянный_градиент_86)"/><path d="M66.05 112.91s4.93 2.91 8.75 1.63a23.4 23.4 0 0 0 6.74-3.73l.87-1.48-6.41-.45-4.54-1.32-5.07 4.34Z" style="fill-rule:evenodd;fill:url(#Безымянный_градиент_102)"/><path d="m111.36 97.06-.57-1.56-2.52-1.3-7 .12 1.84 1.84s5.34 2.35 8.25.9" style="fill-rule:evenodd;fill:#cc2229"/><path d="m100.57 64.13 1.93-4.81 2.78-2.4 1.06.86 1.52-.18.9 1.33 2.51.59 1.81-.63.58-2-1.27-2.56-2.83-1.06s-9.38.76-11.68.47l-6.63-.78-4.58 1.42-1.14 3.77 1.39 1.58h2.15l.75-1 1.72.26 1.46-.3.14-1.25 2.38.43.48-1.51s4.1 1.4 4.1 6.91.47.86.47.86" style="fill-rule:evenodd;fill:url(#Безымянный_градиент_118)"/><path d="M87.28 51.93s-4.06-.23-3.73 2.72c0 0 3.08-1.48 3.73-2.72" style="fill-rule:evenodd;fill:url(#Безымянный_градиент_118-2)"/><path d="M99.17 52.58s-3.69-4.12-5.76-1.46c0 0 4.14 1.82 5.76 1.46" style="fill-rule:evenodd;fill:url(#Безымянный_градиент_123)"/><path d="M102.34 52.26s4.14-3.66 5.88-.78c0 0-4.31 1.32-5.88.78" style="fill-rule:evenodd;fill:url(#Безымянный_градиент_123-2)"/><path d="M111.65 52.27s4.78.3 4.12 2.88c0 0-3.48-1.69-4.12-2.88" style="fill-rule:evenodd;fill:url(#Безымянный_градиент_123-3)"/><path d="M101 50.39s1.18-2.6 2.72-1.55c-.02 0-1.84 1.5-2.72 1.55" style="fill-rule:evenodd;fill:url(#Безымянный_градиент_123-4)"/><path d="M98 49.1s2.84.37 2.28 2.14c-.01 0-1.98-1.3-2.28-2.14" style="fill-rule:evenodd;fill:url(#Безымянный_градиент_123-5)"/><g class="cls-16"><path d="M72.51 104.43a15 15 0 0 0 1.94 1 7.8 7.8 0 0 0 2 .52c1.39.2 2.86.13 4.39.35a9 9 0 0 1-2.2.6 8.3 8.3 0 0 1-2.33 0 5.3 5.3 0 0 1-2.23-.82 4.8 4.8 0 0 1-1.57-1.65" class="cls-17"/></g><g class="cls-16"><path d="M71.73 101.17c.81.42 1.57.85 2.35 1.2a13 13 0 0 0 2.39.8 45 45 0 0 0 5.16.65 10.15 10.15 0 0 1-5.39.32 7.73 7.73 0 0 1-4.51-3Z" class="cls-17"/></g><g class="cls-16"><path d="M95.61 102.36a19 19 0 0 0 3.08-1.36 34 34 0 0 0 2.71-2 6.14 6.14 0 0 1-2.32 2.68 5.48 5.48 0 0 1-3.47.68" class="cls-17"/></g><g class="cls-16"><path d="M97.24 103.94a12.8 12.8 0 0 0 2.64-1.22c.8-.5 1.5-1.17 2.36-1.77a5.2 5.2 0 0 1-1.95 2.4 4.14 4.14 0 0 1-3.05.59" class="cls-17"/></g><g class="cls-16"><path d="M99.19 105.15a17.6 17.6 0 0 0 2.21-1c.67-.4 1.27-.93 2-1.39a4.07 4.07 0 0 1-1.66 2 3.38 3.38 0 0 1-2.55.39" class="cls-17"/></g><path d="M97.75 70.82C92 71.88 88.69 73.92 87.29 75A12.1 12.1 0 0 1 92 71.58c2.91-1.15 6.34-.86 5.75-.76" style="fill-rule:evenodd;fill:url(#Безымянный_градиент_195)"/><path d="M80.82 98.12c-8.6-1.88-13.32-5.22-15.31-7-.69-.59 2.53 3.63 6.76 5.55s9.44 1.65 8.55 1.45" style="fill-rule:evenodd;fill:url(#Безымянный_градиент_195-2)"/><path d="M51 77.34a15.7 15.7 0 0 1 4.34 3.53c1.28 1.35 2.48 2.78 3.64 4.23s2.23 2.9 3.32 4.44a52 52 0 0 0 3.31 4.39A19 19 0 0 0 75 99.06a27.3 27.3 0 0 0 5.4.77h2.72c.91 0 1.81 0 2.7-.11l.12.31c-1.77 1-3.73.84-5.59.79a29.3 29.3 0 0 1-5.58-.83A19.7 19.7 0 0 1 65 94.52a19 19 0 0 1-1.72-2.25L61.67 90c-1.06-1.51-2.14-3-3.25-4.48s-2.25-2.93-3.47-4.3a15.4 15.4 0 0 0-4.11-3.58Z" class="cls-20"/><path d="M43 72c-5.06-4.88 5.88-4.15 11.61-.76C69.66 84.72 80.54 78 82.38 76c16.19-17.58 35.45-1.49 33.15 4.71 0 .11 0 .21.14.18.74-.22 2.86-.63 3.27 1.51-2.82 14.28-19.09 11.86-19.09 11.86 13.58 9 15.59-2.5 17.42-.66 2.44 3.7-15.77 14.73-20.71 15.48" style="fill:none;stroke:#0d0d0d;stroke-miterlimit:10"/><path d="M44 68.51c.92-1.54 1.47-3.62.52-5.14a3.8 3.8 0 0 1-.71-1.48 1.9 1.9 0 0 1 0-.53 2.2 2.2 0 0 1 .21-.5.82.82 0 0 1 .78-.3 2.7 2.7 0 0 1 .46.09A13.2 13.2 0 0 1 48 62.09a22.8 22.8 0 0 1 4.44 4 10.66 10.66 0 0 1 2.73 5.37l-.75.09a10 10 0 0 0-2.55-5 22 22 0 0 0-4.3-3.88A11.1 11.1 0 0 0 45 61.36a2 2 0 0 0-.31-.07h-.1a1.1 1.1 0 0 0-.12.54 4.2 4.2 0 0 0 .64 1.17 4.83 4.83 0 0 1 .55 3 5.4 5.4 0 0 1-.41 1.49 5.8 5.8 0 0 1-.76 1.35Z" class="cls-20"/><circle cx="104.01" cy="85.96" r="4.27" style="fill:#0d0d0d;stroke:#0d0d0d;stroke-miterlimit:10;stroke-width:.2px"/><path d="M111.93 97.06c-.77-.23-.11-2.23-4.75-3.11" style="fill:none;stroke:#0d0d0d;stroke-miterlimit:10;stroke-width:.5px"/><path d="M94.27 96.15a8.1 8.1 0 0 0 2.59-.73 4.7 4.7 0 0 0 1.08-.74 7 7 0 0 0 .91-1 3.24 3.24 0 0 1-.63 1.32 3.3 3.3 0 0 1-1.14.92 4 4 0 0 1-1.39.39 3.6 3.6 0 0 1-1.42-.16M97.06 108.65a11.17 11.17 0 0 1-3.32 7.15 21 21 0 0 1-2.93 2.6 23 23 0 0 1-3.3 2.1 9.8 9.8 0 0 1-3.76 1.24 3.6 3.6 0 0 1-1.06-.08 1.19 1.19 0 0 1-.91-.84 4.54 4.54 0 0 1 .21-2.09 24.7 24.7 0 0 0 1.11-7.52l.11.4a11.4 11.4 0 0 1-1.49-3.76 7.8 7.8 0 0 1 .34-4 8.86 8.86 0 0 1 5.67-5.28 8.7 8.7 0 0 1 2-.47 4.66 4.66 0 0 1 2.06.41 7.86 7.86 0 0 1 3.07 2.61 13.1 13.1 0 0 1 2.2 7.53m-1 0a12.1 12.1 0 0 0-2-7 7 7 0 0 0-2.69-2.36 3.65 3.65 0 0 0-1.67-.36 7.4 7.4 0 0 0-1.76.41 8.09 8.09 0 0 0-5.29 4.74 6.23 6.23 0 0 0 0 3.58 10.2 10.2 0 0 0 1.64 3.22l.13.26v.14a39 39 0 0 1-.73 3.9c-.29 1.28-.74 2.52-1 3.77a3.65 3.65 0 0 0-.1 1.63.8.8 0 0 0 .31.27 1.85 1.85 0 0 0 .79.27 4.7 4.7 0 0 0 1.76-.34 18 18 0 0 0 1.73-.77 22 22 0 0 0 3.22-2 19 19 0 0 0 2.75-2.63 10.35 10.35 0 0 0 2.91-6.73" class="cls-20"/><path d="M71.62 107.23a35.5 35.5 0 0 0 5.3 1.43 28.5 28.5 0 0 0 5.47.26l.4.59-.16-.07a5 5 0 0 1-1.8 3 9.2 9.2 0 0 1-3 1.73 17.8 17.8 0 0 1-6.75.68 13 13 0 0 1-3.36-.44 3.8 3.8 0 0 1-1.59-.85 1.14 1.14 0 0 1-.34-1 1.9 1.9 0 0 1 .49-.86 8.4 8.4 0 0 1 1.37-1c.45-.31.88-.65 1.3-1a21 21 0 0 0 2.31-2.31l.17.59a20 20 0 0 1-8.15-5.19A38.5 38.5 0 0 1 57.46 95a65 65 0 0 1-4.16-8.68 75 75 0 0 1-3-9.16h.82a5.63 5.63 0 0 1-2.85 4 10.6 10.6 0 0 1-4.77 1.18 21.5 21.5 0 0 1-4.81-.4 19.4 19.4 0 0 1-4.64-1.45 6.5 6.5 0 0 1-1.1-.64 2.5 2.5 0 0 1-.53-.51 1.1 1.1 0 0 1-.21-.44.8.8 0 0 1 0-.31v-.21a1.42 1.42 0 0 1 .48-.75 2.1 2.1 0 0 1 .67-.37 8 8 0 0 1 1.25-.26A12.3 12.3 0 0 0 39 75.74a8 8 0 0 0 1.76-1.35c.51-.56 1.08-1.15 1.67-1.69a5 5 0 0 1 2.11-1.37 1.6 1.6 0 0 1 1.26.39c.33.25.62.51.92.77v.06c-.7-.32-1.44-.93-2-.71a2.5 2.5 0 0 0-.86.6 10 10 0 0 0-.8.82c-.53.58-1 1.18-1.54 1.79a7.5 7.5 0 0 1-1.94 1.6A12.5 12.5 0 0 1 34.77 78c-.75.1-1.58.3-1.59.63v.16a1.7 1.7 0 0 0 .33.31 5 5 0 0 0 .94.55A18.6 18.6 0 0 0 38.87 81a20.4 20.4 0 0 0 4.6.42 9.8 9.8 0 0 0 4.37-1A4.74 4.74 0 0 0 50.3 77l.38-1.76.44 1.76a76 76 0 0 0 2.93 9 64 64 0 0 0 4.09 8.59 37.5 37.5 0 0 0 5.64 7.58 19.34 19.34 0 0 0 7.83 5l.54.18-.37.41a21.6 21.6 0 0 1-2.48 2.31c-.43.35-.88.69-1.35 1a9 9 0 0 0-1.29.95c-.36.38-.47.76-.14 1.06a3.2 3.2 0 0 0 1.33.68 11 11 0 0 0 3.22.38 15.7 15.7 0 0 0 6.38-1 8.6 8.6 0 0 0 2.64-1.64c.38-.36.71-.75 1-1.14a12 12 0 0 1 1-1.23l-.16-.07.4.59a28 28 0 0 1-5.63-.33 35.4 35.4 0 0 1-5.42-1.52Z" class="cls-20"/><ellipse cx="105.54" cy="85.19" rx="1.13" ry=".77" style="fill:#fffefe"/><path d="M100.36 66.43s0-6.34-2.37-8.45-2.06-1.5-2.06-1.5-.16 2.68-2.52.75c0 1.76-.93 2.45-3.19 1.12-.29 2.51-6.33 2.16-4.35-2.45 1.29-3 6-3.06 6.94-2.88s5.55.75 6.11.81c2.33.24 3 .06 8.41-.74 6.8-.4 6.33 4.16 6.33 4.16a2.1 2.1 0 0 1-2.39 2.27c-1.81 0-3.41-.71-3.41-1.92a1.56 1.56 0 0 1-.92.3 1.23 1.23 0 0 1-1.34-1.07s-4.37.65-5.24 9.6ZM98.93 52.58c-.29 0-1.82-.39-4.9-.91-2.13-.35 1.69-3.67 4.9.91ZM102.5 52.61a44 44 0 0 1 5-.75c2.09-.36-1.79-3.86-5 .75ZM100.57 51.47A20 20 0 0 0 98 49.83c-1-.96 2.38-1.67 2.57 1.64ZM101.31 50.5a11.4 11.4 0 0 1 2.22-1.07c.84-.72-2.18-2.15-2.22 1.07ZM87.5 52a26 26 0 0 0-3.14 2.56c-1.59.84-.99-3.56 3.14-2.56ZM111.64 52.35c.49.14 1.6.67 3.37 2.62 1.47 1.11 1.35-3.34-3.37-2.62Z" class="cls-25"/></g></g></svg>